<svg width="24px" height="14px" viewBox="0 0 24 14" version="1.1" xmlns="http://www.w3.org/2000/svg" xmlns:xlink="http://www.w3.org/1999/xlink"><g id="Page-1" stroke="none" stroke-width="1" fill="none" fill-rule="evenodd"><g id="Film" transform="translate(-1621.000000, -857.000000)" fill="#FFFFFF" fill-rule="nonzero"><g id="vk" transform="translate(1621.000000, 857.000000)"><path d="M23.7860808,12.4871184 C23.7215761,12.3766955 23.3225468,11.4902451 21.4024058,9.66826741 C19.3922583,7.76040525 19.6622781,8.07020281 22.0834558,4.77131896 C23.5580641,2.76223582 24.1476073,1.53531482 23.9630938,1.01080609 C23.7875809,0.510835786 22.7030013,0.642729794 22.7030013,0.642729794 L19.0967366,0.664200911 C19.0967366,0.664200911 18.829717,0.627393281 18.6302024,0.74855173 C18.4366882,0.868176528 18.312179,1.14423375 18.312179,1.14423375 C18.312179,1.14423375 17.7406371,2.69935612 16.9785811,4.0213635 C15.3719632,6.81107513 14.728416,6.95830565 14.4658967,6.78500306 C13.8553519,6.38165278 14.0083631,5.16240003 14.0083631,4.29742073 C14.0083631,1.59359357 14.4088925,0.4663599 13.2268057,0.174966162 C12.8337769,0.0783461329 12.5457558,0.0139327803 11.5421821,0.00319722157 C10.2550876,-0.0106056397 9.16450756,0.00779817533 8.54796231,0.316062077 C8.13693214,0.521571345 7.82040891,0.980133069 8.01392311,1.00620514 C8.25244062,1.03841182 8.79248026,1.15496931 9.07900129,1.55371864 C9.44952849,2.06749181 9.43602749,3.22386485 9.43602749,3.22386485 C9.43602749,3.22386485 9.64904313,6.4061912 8.93949105,6.80187322 C8.45195526,7.07332949 7.78440626,6.51968139 6.35180111,3.98762317 C5.61824726,2.69168787 5.06320652,1.25772395 5.06320652,1.25772395 C5.06320652,1.25772395 4.9566987,0.990868628 4.76618472,0.848239062 C4.53516776,0.67493647 4.21114398,0.619725025 4.21114398,0.619725025 L0.781892268,0.641196142 C0.781892268,0.641196142 0.2673545,0.656532655 0.0783406263,0.885046692 C-0.089671706,1.08902231 0.0648396353,1.50924275 0.0648396353,1.50924275 C0.0648396353,1.50924275 2.75003673,7.93064054 5.78925982,11.1681783 C8.57796451,14.1357935 11.7431968,13.9410198 11.7431968,13.9410198 L13.1773021,13.9410198 C13.1773021,13.9410198 13.6108339,13.891943 13.8313501,13.6480924 C14.0353651,13.4241793 14.0278645,13.0039589 14.0278645,13.0039589 C14.0278645,13.0039589 13.9993624,11.0362843 14.8934281,10.7464242 C15.7739927,10.4611651 16.9050757,12.6481518 18.1036637,13.4901263 C19.0097302,14.1265916 19.6982808,13.9870293 19.6982808,13.9870293 L22.9040161,13.9410198 C22.9040161,13.9410198 24.5811392,13.8351979 23.7860808,12.4871184 Z" id="Path"/></g></g></g></svg>